<mxfile host="app.diagrams.net" agent="Mozilla/5.0 (Windows NT 10.0; Win64; x64) AppleWebKit/537.36 (KHTML, like Gecko) Chrome/130.0.0.0 YaBrowser/24.12.0.0 Safari/537.36" version="26.0.5">
  <diagram name="Страница — 1" id="7H67kT6eiS9U1oJxXuoA">
    <mxGraphModel dx="887" dy="361" grid="1" gridSize="10" guides="1" tooltips="1" connect="1" arrows="1" fold="1" page="1" pageScale="1" pageWidth="827" pageHeight="1169" math="0" shadow="0">
      <root>
        <mxCell id="0" />
        <mxCell id="1" parent="0" />
        <mxCell id="KqNjT7o6XH-Fiwz7E5G1-6" value="class Car" style="swimlane;fontStyle=1;align=center;verticalAlign=top;childLayout=stackLayout;horizontal=1;startSize=26;horizontalStack=0;resizeParent=1;resizeParentMax=0;resizeLast=0;collapsible=1;marginBottom=0;whiteSpace=wrap;html=1;labelBackgroundColor=none;fillColor=#FAE5C7;strokeColor=#0F8B8D;fontColor=#143642;" vertex="1" parent="1">
          <mxGeometry x="20" y="20" width="160" height="210" as="geometry">
            <mxRectangle x="330" y="420" width="60" height="30" as="alternateBounds" />
          </mxGeometry>
        </mxCell>
        <mxCell id="KqNjT7o6XH-Fiwz7E5G1-7" value="- power: int&lt;div&gt;- cost: double&lt;/div&gt;&lt;div&gt;- number: String&lt;/div&gt;&lt;div&gt;- make: String&lt;/div&gt;&lt;div&gt;- mileage: int&lt;/div&gt;&lt;div&gt;- isServiceDone: boolean&lt;/div&gt;" style="text;strokeColor=none;fillColor=none;align=left;verticalAlign=top;spacingLeft=4;spacingRight=4;overflow=hidden;rotatable=0;points=[[0,0.5],[1,0.5]];portConstraint=eastwest;whiteSpace=wrap;html=1;labelBackgroundColor=none;fontColor=#143642;" vertex="1" parent="KqNjT7o6XH-Fiwz7E5G1-6">
          <mxGeometry y="26" width="160" height="104" as="geometry" />
        </mxCell>
        <mxCell id="KqNjT7o6XH-Fiwz7E5G1-8" value="" style="line;strokeWidth=1;fillColor=none;align=left;verticalAlign=middle;spacingTop=-1;spacingLeft=3;spacingRight=3;rotatable=0;labelPosition=right;points=[];portConstraint=eastwest;strokeColor=#0F8B8D;labelBackgroundColor=none;fontColor=#143642;" vertex="1" parent="KqNjT7o6XH-Fiwz7E5G1-6">
          <mxGeometry y="130" width="160" height="8" as="geometry" />
        </mxCell>
        <mxCell id="KqNjT7o6XH-Fiwz7E5G1-9" value="+ startEngine()&lt;div&gt;+ accelerate()&lt;/div&gt;&lt;div&gt;+ brake()&lt;/div&gt;&lt;div&gt;+ drive()&lt;/div&gt;" style="text;strokeColor=none;fillColor=none;align=left;verticalAlign=top;spacingLeft=4;spacingRight=4;overflow=hidden;rotatable=0;points=[[0,0.5],[1,0.5]];portConstraint=eastwest;whiteSpace=wrap;html=1;labelBackgroundColor=none;fontColor=#143642;" vertex="1" parent="KqNjT7o6XH-Fiwz7E5G1-6">
          <mxGeometry y="138" width="160" height="72" as="geometry" />
        </mxCell>
        <mxCell id="KqNjT7o6XH-Fiwz7E5G1-11" value="class Airplane" style="swimlane;fontStyle=1;align=center;verticalAlign=top;childLayout=stackLayout;horizontal=1;startSize=26;horizontalStack=0;resizeParent=1;resizeParentMax=0;resizeLast=0;collapsible=1;marginBottom=0;whiteSpace=wrap;html=1;strokeColor=#0F8B8D;fontColor=#143642;fillColor=#FAE5C7;" vertex="1" parent="1">
          <mxGeometry x="220" y="144" width="160" height="86" as="geometry" />
        </mxCell>
        <mxCell id="KqNjT7o6XH-Fiwz7E5G1-12" value="- maxAltitude: int" style="text;strokeColor=none;fillColor=none;align=left;verticalAlign=top;spacingLeft=4;spacingRight=4;overflow=hidden;rotatable=0;points=[[0,0.5],[1,0.5]];portConstraint=eastwest;whiteSpace=wrap;html=1;fontColor=#143642;" vertex="1" parent="KqNjT7o6XH-Fiwz7E5G1-11">
          <mxGeometry y="26" width="160" height="26" as="geometry" />
        </mxCell>
        <mxCell id="KqNjT7o6XH-Fiwz7E5G1-13" value="" style="line;strokeWidth=1;fillColor=none;align=left;verticalAlign=middle;spacingTop=-1;spacingLeft=3;spacingRight=3;rotatable=0;labelPosition=right;points=[];portConstraint=eastwest;strokeColor=inherit;fontColor=#143642;" vertex="1" parent="KqNjT7o6XH-Fiwz7E5G1-11">
          <mxGeometry y="52" width="160" height="8" as="geometry" />
        </mxCell>
        <mxCell id="KqNjT7o6XH-Fiwz7E5G1-14" value="+ fly()" style="text;strokeColor=none;fillColor=none;align=left;verticalAlign=top;spacingLeft=4;spacingRight=4;overflow=hidden;rotatable=0;points=[[0,0.5],[1,0.5]];portConstraint=eastwest;whiteSpace=wrap;html=1;fontColor=#143642;" vertex="1" parent="KqNjT7o6XH-Fiwz7E5G1-11">
          <mxGeometry y="60" width="160" height="26" as="geometry" />
        </mxCell>
        <mxCell id="KqNjT7o6XH-Fiwz7E5G1-15" value="abstract Vehicle" style="swimlane;fontStyle=1;align=center;verticalAlign=top;childLayout=stackLayout;horizontal=1;startSize=26;horizontalStack=0;resizeParent=1;resizeParentMax=0;resizeLast=0;collapsible=1;marginBottom=0;whiteSpace=wrap;html=1;strokeColor=#0F8B8D;fontColor=#143642;fillColor=#FAE5C7;" vertex="1" parent="1">
          <mxGeometry x="120" y="290" width="160" height="108" as="geometry" />
        </mxCell>
        <mxCell id="KqNjT7o6XH-Fiwz7E5G1-16" value="- power: int&lt;div&gt;- cost: double&amp;nbsp;&lt;/div&gt;&lt;div&gt;- number: String&lt;/div&gt;&lt;div&gt;- make: String&lt;/div&gt;" style="text;strokeColor=none;fillColor=none;align=left;verticalAlign=top;spacingLeft=4;spacingRight=4;overflow=hidden;rotatable=0;points=[[0,0.5],[1,0.5]];portConstraint=eastwest;whiteSpace=wrap;html=1;fontColor=#143642;" vertex="1" parent="KqNjT7o6XH-Fiwz7E5G1-15">
          <mxGeometry y="26" width="160" height="74" as="geometry" />
        </mxCell>
        <mxCell id="KqNjT7o6XH-Fiwz7E5G1-17" value="" style="line;strokeWidth=1;fillColor=none;align=left;verticalAlign=middle;spacingTop=-1;spacingLeft=3;spacingRight=3;rotatable=0;labelPosition=right;points=[];portConstraint=eastwest;strokeColor=inherit;fontColor=#143642;" vertex="1" parent="KqNjT7o6XH-Fiwz7E5G1-15">
          <mxGeometry y="100" width="160" height="8" as="geometry" />
        </mxCell>
        <mxCell id="KqNjT7o6XH-Fiwz7E5G1-19" value="" style="endArrow=open;endFill=1;endSize=12;html=1;rounded=0;strokeColor=#A8201A;fontColor=#143642;fillColor=#FAE5C7;exitX=0.527;exitY=1.019;exitDx=0;exitDy=0;exitPerimeter=0;entryX=0.348;entryY=-0.005;entryDx=0;entryDy=0;entryPerimeter=0;" edge="1" parent="1" source="KqNjT7o6XH-Fiwz7E5G1-9" target="KqNjT7o6XH-Fiwz7E5G1-15">
          <mxGeometry width="160" relative="1" as="geometry">
            <mxPoint x="170" y="270" as="sourcePoint" />
            <mxPoint x="330" y="270" as="targetPoint" />
          </mxGeometry>
        </mxCell>
        <mxCell id="KqNjT7o6XH-Fiwz7E5G1-20" value="" style="endArrow=open;endFill=1;endSize=12;html=1;rounded=0;strokeColor=#A8201A;fontColor=#143642;fillColor=#FAE5C7;exitX=0.509;exitY=1.054;exitDx=0;exitDy=0;exitPerimeter=0;entryX=0.563;entryY=0;entryDx=0;entryDy=0;entryPerimeter=0;" edge="1" parent="1" source="KqNjT7o6XH-Fiwz7E5G1-14" target="KqNjT7o6XH-Fiwz7E5G1-15">
          <mxGeometry width="160" relative="1" as="geometry">
            <mxPoint x="170" y="270" as="sourcePoint" />
            <mxPoint x="330" y="270" as="targetPoint" />
          </mxGeometry>
        </mxCell>
        <mxCell id="KqNjT7o6XH-Fiwz7E5G1-21" value="class Company" style="swimlane;fontStyle=1;align=center;verticalAlign=top;childLayout=stackLayout;horizontal=1;startSize=26;horizontalStack=0;resizeParent=1;resizeParentMax=0;resizeLast=0;collapsible=1;marginBottom=0;whiteSpace=wrap;html=1;strokeColor=#0F8B8D;fontColor=#143642;fillColor=#FAE5C7;" vertex="1" parent="1">
          <mxGeometry x="40" y="510" width="240" height="164" as="geometry" />
        </mxCell>
        <mxCell id="KqNjT7o6XH-Fiwz7E5G1-22" value="- name: String&lt;div&gt;- address: String&lt;/div&gt;&lt;div&gt;- employees: List&amp;lt;Employee&amp;gt;&lt;/div&gt;" style="text;strokeColor=none;fillColor=none;align=left;verticalAlign=top;spacingLeft=4;spacingRight=4;overflow=hidden;rotatable=0;points=[[0,0.5],[1,0.5]];portConstraint=eastwest;whiteSpace=wrap;html=1;fontColor=#143642;" vertex="1" parent="KqNjT7o6XH-Fiwz7E5G1-21">
          <mxGeometry y="26" width="240" height="64" as="geometry" />
        </mxCell>
        <mxCell id="KqNjT7o6XH-Fiwz7E5G1-23" value="" style="line;strokeWidth=1;fillColor=none;align=left;verticalAlign=middle;spacingTop=-1;spacingLeft=3;spacingRight=3;rotatable=0;labelPosition=right;points=[];portConstraint=eastwest;strokeColor=inherit;fontColor=#143642;" vertex="1" parent="KqNjT7o6XH-Fiwz7E5G1-21">
          <mxGeometry y="90" width="240" height="8" as="geometry" />
        </mxCell>
        <mxCell id="KqNjT7o6XH-Fiwz7E5G1-24" value="+ addEmployee(employee: Employee)&lt;div&gt;+ removeEmployee(employee: Employee)&lt;/div&gt;&lt;div&gt;+ getProfit()&lt;/div&gt;" style="text;strokeColor=none;fillColor=none;align=left;verticalAlign=top;spacingLeft=4;spacingRight=4;overflow=hidden;rotatable=0;points=[[0,0.5],[1,0.5]];portConstraint=eastwest;whiteSpace=wrap;html=1;fontColor=#143642;" vertex="1" parent="KqNjT7o6XH-Fiwz7E5G1-21">
          <mxGeometry y="98" width="240" height="66" as="geometry" />
        </mxCell>
        <mxCell id="KqNjT7o6XH-Fiwz7E5G1-25" value="class NewspaperOffice" style="swimlane;fontStyle=1;align=center;verticalAlign=top;childLayout=stackLayout;horizontal=1;startSize=26;horizontalStack=0;resizeParent=1;resizeParentMax=0;resizeLast=0;collapsible=1;marginBottom=0;whiteSpace=wrap;html=1;strokeColor=#0F8B8D;fontColor=#143642;fillColor=#FAE5C7;" vertex="1" parent="1">
          <mxGeometry x="290" y="510" width="160" height="160" as="geometry" />
        </mxCell>
        <mxCell id="KqNjT7o6XH-Fiwz7E5G1-26" value="- name: String&lt;div&gt;- address: String&lt;/div&gt;&lt;div&gt;- staff: List&amp;lt;Journalist&amp;gt;&lt;/div&gt;&lt;div&gt;- articles: List &amp;lt;Article&amp;gt;&lt;/div&gt;" style="text;strokeColor=none;fillColor=none;align=left;verticalAlign=top;spacingLeft=4;spacingRight=4;overflow=hidden;rotatable=0;points=[[0,0.5],[1,0.5]];portConstraint=eastwest;whiteSpace=wrap;html=1;fontColor=#143642;" vertex="1" parent="KqNjT7o6XH-Fiwz7E5G1-25">
          <mxGeometry y="26" width="160" height="74" as="geometry" />
        </mxCell>
        <mxCell id="KqNjT7o6XH-Fiwz7E5G1-27" value="" style="line;strokeWidth=1;fillColor=none;align=left;verticalAlign=middle;spacingTop=-1;spacingLeft=3;spacingRight=3;rotatable=0;labelPosition=right;points=[];portConstraint=eastwest;strokeColor=inherit;fontColor=#143642;" vertex="1" parent="KqNjT7o6XH-Fiwz7E5G1-25">
          <mxGeometry y="100" width="160" height="8" as="geometry" />
        </mxCell>
        <mxCell id="KqNjT7o6XH-Fiwz7E5G1-28" value="+ addArticle(article: Article)&lt;div&gt;+ publish()&lt;/div&gt;" style="text;strokeColor=none;fillColor=none;align=left;verticalAlign=top;spacingLeft=4;spacingRight=4;overflow=hidden;rotatable=0;points=[[0,0.5],[1,0.5]];portConstraint=eastwest;whiteSpace=wrap;html=1;fontColor=#143642;" vertex="1" parent="KqNjT7o6XH-Fiwz7E5G1-25">
          <mxGeometry y="108" width="160" height="52" as="geometry" />
        </mxCell>
      </root>
    </mxGraphModel>
  </diagram>
</mxfile>
